<?xml version="1.0" standalone="no"?>
<!DOCTYPE svg PUBLIC "-//W3C//DTD SVG 20010904//EN"
 "http://www.w3.org/TR/2001/REC-SVG-20010904/DTD/svg10.dtd">
<svg version="1.0" xmlns="http://www.w3.org/2000/svg"
 width="68.000000pt" height="68.000000pt" viewBox="0 0 68.000000 68.000000"
 preserveAspectRatio="xMidYMid meet">

<g transform="translate(0.000000,68.000000) scale(0.100000,-0.100000)"
fill="#000000" stroke="none">
<path d="M0 340 l0 -340 340 0 340 0 0 340 0 340 -340 0 -340 0 0 -340z m198
-76 c9 -17 57 -44 78 -44 2 0 4 70 4 155 0 85 4 155 8 155 11 0 95 -120 89
-126 -3 -3 -20 16 -39 43 l-33 48 -3 -134 c-1 -73 -1 -135 1 -138 10 -9 57 18
68 39 17 31 29 100 20 113 -10 15 -1 155 10 155 6 0 9 -33 8 -79 l-2 -79 49
-68 49 -69 5 150 6 150 2 -162 c1 -90 -1 -163 -5 -163 -5 0 -28 29 -52 65 -43
63 -61 73 -61 34 0 -28 -27 -77 -49 -89 -28 -15 -97 -12 -130 4 -43 23 -51 54
-49 189 l1 122 7 -125 c3 -69 11 -135 18 -146z"/>
</g>
</svg>
